<?xml version="1.0" encoding="UTF-8"?>
<!-- Generator: visioncortex VTracer 0.6.4 -->
<svg version="1.1" xmlns="http://www.w3.org/2000/svg" width="320" height="320">
<path d="M0 0 C105.6 0 211.2 0 320 0 C320 105.6 320 211.2 320 320 C214.4 320 108.8 320 0 320 C0 214.4 0 108.8 0 0 Z " fill="#000000" transform="translate(0,0)"/>
<path d="M0 0 C1.19 -0.03 2.37 -0.06 3.6 -0.09 C13.63 -0.16 23.19 1.43 30.69 8.62 C34.75 13.62 35.6 19.34 35.43 25.64 C34.76 30.46 32.96 34.86 31.06 39.31 C29.58 39.32 29.58 39.32 28.07 39.32 C14.15 39.61 -3.37 41.03 -15.94 47.31 C-16.27 81.3 -16.6 115.29 -16.94 150.31 C-25.12 151.57 -32.53 152.68 -40.69 152.69 C-41.56 152.71 -42.42 152.74 -43.32 152.76 C-50.04 152.79 -56.27 151.47 -61.49 146.97 C-67.5 140.27 -68.38 133.69 -68.36 125.11 C-68.37 124.11 -68.37 123.11 -68.38 122.08 C-68.41 118.79 -68.41 115.49 -68.41 112.2 C-68.41 109.9 -68.42 107.6 -68.43 105.29 C-68.44 100.48 -68.44 95.66 -68.44 90.85 C-68.43 84.69 -68.46 78.53 -68.5 72.37 C-68.53 67.62 -68.53 62.87 -68.53 58.12 C-68.53 55.85 -68.54 53.58 -68.56 51.31 C-68.58 48.13 -68.57 44.95 -68.55 41.77 C-68.57 40.84 -68.58 39.91 -68.59 38.95 C-68.49 31.24 -65.85 25.84 -60.97 19.93 C-48.6 9.01 -31.36 2.45 -14.94 1.31 C-10.58 -0.86 -4.78 0.04 0 0 Z " fill="#FBFBFB" transform="translate(148.9375,82.6875)"/>
<path d="M0 0 C6.17 4.42 11.58 10.16 13.44 17.71 C14.71 25.73 14.12 32.89 10.86 40.33 C10.59 40.96 10.32 41.58 10.05 42.23 C7.13 48.16 2.18 51.93 -3.85 54.47 C-11.85 56.56 -22.83 57.18 -30.33 53.33 C-36.97 48.67 -41.74 43.12 -43.71 35.17 C-45.18 25.56 -45.28 16.45 -39.74 8.25 C-30.6 -3.38 -13.3 -7.3 0 0 Z " fill="#FBFBFB" transform="translate(225.14453125,181.671875)"/>
</svg>
